<?xml version="1.0" encoding="utf-8"?>
<!-- Generator: Adobe Illustrator 28.3.0, SVG Export Plug-In . SVG Version: 6.00 Build 0)  -->
<svg version="1.1" id="svg230114418_1297" xmlns="http://www.w3.org/2000/svg" xmlns:xlink="http://www.w3.org/1999/xlink" x="0px"
	 y="0px" viewBox="0 0 66 66" style="enable-background:new 0 0 66 66;" xml:space="preserve">
<style type="text/css">
	.st0{fill:#FFF;}
</style>
<path class="st0" d="M51.1,32c-0.6-10-9.2-17.7-19.2-17.1c-9.2,0.5-16.5,7.9-17.1,17.1H1C1,14.3,15.3,0,33,0c0,0,0,0,0,0
	c17.7,0,32,14.3,32,32c0,0,0,0,0,0H51.1z M33.7,66c-6,0-11.9-1.7-16.9-4.9C11.6,57.9,7.6,53.3,5,47.8L17.4,42c1.4,3,3.7,5.5,6.5,7.3
	c2.8,1.8,6,2.8,9.3,2.9c3.3,0.1,6.6-0.8,9.5-2.5c2.9-1.7,5.2-4.1,6.8-7.1L62,48.5c-2.7,5.2-6.7,9.6-11.7,12.7
	C45.3,64.3,39.5,66,33.7,66z"/>
</svg>
